<?xml version="1.0" encoding="utf-8"?>
<svg version="1.1" id="Layer_1"
xmlns="http://www.w3.org/2000/svg"
xmlns:xlink="http://www.w3.org/1999/xlink"
width="32px" height="32px"
xml:space="preserve">
<g id="PathID_1" transform="matrix(0.304896, 0, 0, 0.304896, 16.05, 15.8)" opacity="1">
<path style="fill:#DADBDB;fill-opacity:1" d="M36 -36.1Q51 -21.1 51 0Q51 21.1 36 36Q21.1 51 0 51Q-21.1 51 -36.1 36Q-51 21.1 -51 0Q-51 -21.1 -36.1 -36.1Q-21.1 -51 0 -51Q21.1 -51 36 -36.1" />
</g>
<g id="PathID_2" transform="matrix(0.304896, 0, 0, 0.304896, 16.05, 15.8)" opacity="1">
</g>
<g id="PathID_3" transform="matrix(0.392367, 0, 0, 0.400415, 14.7, 28.2)" opacity="1">
<path style="fill:#0CA3D1;fill-opacity:1" d="M16 -4Q20.15 -4 23.05 -6.9Q26 -9.85 26 -14Q26 -18.15 23.05 -21.05Q20.15 -24 16 -24Q11.85 -24 8.9 -21.05Q6 -18.15 6 -14Q6 -9.85 8.9 -6.9Q11.85 -4 16 -4M6 -23.8L6.1 -23.9Q10.2 -28 16 -28Q21.8 -28 25.9 -23.9Q30 -19.8 30 -14Q30 -8.2 25.9 -4.1Q21.8 0 16 0Q10.2 0 6.1 -4.1Q2 -8.2 2 -14L2 -38.05Q2 -38.85 2.55 -39.45Q3.15 -40.05 4 -40.05Q4.8 -40.05 5.4 -39.45Q6 -38.85 6 -38.05L6 -23.8" />
</g>
<g id="PathID_4" transform="matrix(0.392367, 0, 0, 0.400415, 14.7, 28.2)" opacity="1">
</g>
<g id="PathID_5" transform="matrix(0.400415, 0, 0, 0.400415, 5.05, 14.9)" opacity="1">
<path style="fill:#C33C2D;fill-opacity:1" d="M16 -24Q11.85 -24 8.9 -21.05Q6 -18.15 6 -14Q6 -9.85 8.9 -6.9Q11.85 -4 16 -4Q20.15 -4 23.05 -6.9Q26 -9.85 26 -14Q26 -18.15 23.05 -21.05Q20.15 -24 16 -24M26 -4.2Q21.8 0 16 0Q10.2 0 6.1 -4.1Q2 -8.2 2 -14Q2 -19.8 6.1 -23.9Q10.2 -28 16 -28Q21.8 -28 25.9 -23.9Q30 -19.8 30 -14L30 -2Q30 -1.15 29.4 -0.55Q28.8 0 28 0Q27.15 0 26.55 -0.55Q26 -1.15 26 -2L26 -4.2" />
</g>
<g id="PathID_6" transform="matrix(0.400415, 0, 0, 0.400415, 5.05, 14.9)" opacity="1">
</g>
</svg>
